{
	"asset":{
		"generator":"Khronos glTF Blender I/O v3.5.30",
		"version":"2.0"
	},
	"scene":0,
	"scenes":[
		{
			"name":"Scene",
			"nodes":[
				0,
				1,
				2,
				3,
				4
			]
		}
	],
	"nodes":[
		{
			"mesh":0,
			"name":"Frame",
			"scale":[
				10,
				10,
				1
			],
			"translation":[
				0,
				10,
				0
			]
		},
		{
			"name":"BL",
			"translation":[
				7.8458147048950195,
				1.9028778076171875,
				0.7507225275039673
			]
		},
		{
			"name":"BR",
			"translation":[
				-8.11854362487793,
				1.9028778076171875,
				0.7507225275039673
			]
		},
		{
			"name":"TR",
			"translation":[
				-8.11854362487793,
				18.389013290405273,
				0.7507225275039673
			]
		},
		{
			"name":"TL",
			"translation":[
				7.8458147048950195,
				18.389013290405273,
				0.7507225275039673
			]
		}
	],
	"meshes":[
		{
			"name":"Cube.002",
			"primitives":[
				{
					"attributes":{
						"POSITION":0,
						"TEXCOORD_0":1,
						"NORMAL":2
					},
					"indices":3
				}
			]
		}
	],
	"accessors":[
		{
			"bufferView":0,
			"componentType":5126,
			"count":280,
			"max":[
				1,
				1,
				1
			],
			"min":[
				-1,
				-1,
				-1
			],
			"type":"VEC3"
		},
		{
			"bufferView":1,
			"componentType":5126,
			"count":280,
			"type":"VEC2"
		},
		{
			"bufferView":2,
			"componentType":5126,
			"count":280,
			"type":"VEC3"
		},
		{
			"bufferView":3,
			"componentType":5123,
			"count":660,
			"type":"SCALAR"
		}
	],
	"bufferViews":[
		{
			"buffer":0,
			"byteLength":3360,
			"byteOffset":0,
			"target":34962
		},
		{
			"buffer":0,
			"byteLength":2240,
			"byteOffset":3360,
			"target":34962
		},
		{
			"buffer":0,
			"byteLength":3360,
			"byteOffset":5600,
			"target":34962
		},
		{
			"buffer":0,
			"byteLength":1320,
			"byteOffset":8960,
			"target":34963
		}
	],
	"buffers":[
		{
			"byteLength":10280,
			"uri":"data:application/octet-stream;base64,"
		}
	]
}
